<?xml version="1.0" encoding="UTF-8"?>
<!DOCTYPE svg PUBLIC "-//W3C//DTD SVG 1.1//EN" "http://www.w3.org/Graphics/SVG/1.1/DTD/svg11.dtd">
<svg xmlns="http://www.w3.org/2000/svg" version="1.1" width="859px" height="132px" style="shape-rendering:geometricPrecision; text-rendering:geometricPrecision; image-rendering:optimizeQuality; fill-rule:evenodd; clip-rule:evenodd" xmlns:xlink="http://www.w3.org/1999/xlink">
<g><path style="opacity:1" fill="#fefefe" d="M -0.5,-0.5 C 133.833,-0.5 268.167,-0.5 402.5,-0.5C 311.74,6.8125 222.74,23.9792 135.5,51C 100.77,61.3685 67.4365,75.0352 35.5,92C 21.4845,99.0145 10.3179,109.181 2,122.5C 0.851234,125.393 0.351234,128.393 0.5,131.5C 0.166667,131.5 -0.166667,131.5 -0.5,131.5C -0.5,87.5 -0.5,43.5 -0.5,-0.5 Z"/></g>
<g><path style="opacity:1" fill="#fefdfd" d="M 441.5,-0.5 C 580.5,-0.5 719.5,-0.5 858.5,-0.5C 858.5,40.5 858.5,81.5 858.5,122.5C 854.544,115.027 849.21,108.527 842.5,103C 825.042,90.935 806.376,80.935 786.5,73C 718.928,47.5459 649.595,28.5459 578.5,16C 533.059,7.44429 487.393,1.94429 441.5,-0.5 Z"/></g>
<g><path style="opacity:1" fill="#673614" d="M 402.5,-0.5 C 415.5,-0.5 428.5,-0.5 441.5,-0.5C 487.393,1.94429 533.059,7.44429 578.5,16C 649.595,28.5459 718.928,47.5459 786.5,73C 806.376,80.935 825.042,90.935 842.5,103C 849.21,108.527 854.544,115.027 858.5,122.5C 858.5,125.5 858.5,128.5 858.5,131.5C 572.5,131.5 286.5,131.5 0.5,131.5C 0.351234,128.393 0.851234,125.393 2,122.5C 10.3179,109.181 21.4845,99.0145 35.5,92C 67.4365,75.0352 100.77,61.3685 135.5,51C 222.74,23.9792 311.74,6.8125 402.5,-0.5 Z"/></g>
<g><path style="opacity:1" fill="#63993e" d="M 406.5,3.5 C 372.194,20.4489 359.028,47.7822 367,85.5C 374.685,106.351 388.852,120.685 409.5,128.5C 393.167,128.5 376.833,128.5 360.5,128.5C 335.125,98.2479 329.625,64.5813 344,27.5C 347.604,20.6153 351.437,13.9486 355.5,7.5C 372.414,5.30906 389.414,3.97573 406.5,3.5 Z"/></g>
<g><path style="opacity:1" fill="#679f41" d="M 452.5,3.5 C 486.806,20.4489 499.972,47.7822 492,85.5C 484.315,106.351 470.148,120.685 449.5,128.5C 436.167,128.5 422.833,128.5 409.5,128.5C 388.852,120.685 374.685,106.351 367,85.5C 359.028,47.7822 372.194,20.4489 406.5,3.5C 421.682,2.24059 437.016,2.24059 452.5,3.5 Z"/></g>
<g><path style="opacity:1" fill="#63993e" d="M 452.5,3.5 C 469.223,4.17308 485.89,5.50642 502.5,7.5C 523.326,35.1262 528.159,65.4595 517,98.5C 512.59,109.667 506.423,119.667 498.5,128.5C 482.167,128.5 465.833,128.5 449.5,128.5C 470.148,120.685 484.315,106.351 492,85.5C 499.972,47.7822 486.806,20.4489 452.5,3.5 Z"/></g>
<g><path style="opacity:1" fill="#5f923c" d="M 355.5,7.5 C 351.437,13.9486 347.604,20.6153 344,27.5C 329.625,64.5813 335.125,98.2479 360.5,128.5C 352.167,128.5 343.833,128.5 335.5,128.5C 312.225,90.1022 310.559,50.7688 330.5,10.5C 338.778,9.0903 347.111,8.0903 355.5,7.5 Z"/></g>
<g><path style="opacity:1" fill="#5e923b" d="M 502.5,7.5 C 512.787,9.07764 523.121,10.411 533.5,11.5C 552.213,51.3862 550.546,90.3862 528.5,128.5C 518.5,128.5 508.5,128.5 498.5,128.5C 506.423,119.667 512.59,109.667 517,98.5C 528.159,65.4595 523.326,35.1262 502.5,7.5 Z"/></g>
<g><path style="opacity:1" fill="#5b8d39" d="M 330.5,10.5 C 310.559,50.7688 312.225,90.1022 335.5,128.5C 325.833,128.5 316.167,128.5 306.5,128.5C 289.81,92.6949 287.643,56.0283 300,18.5C 300.69,16.6498 301.856,15.3164 303.5,14.5C 312.517,13.248 321.517,11.9147 330.5,10.5 Z"/></g>
<g><path style="opacity:1" fill="#5b8c39" d="M 533.5,11.5 C 541.819,12.9149 550.152,14.2482 558.5,15.5C 571.598,53.9817 569.598,91.6484 552.5,128.5C 544.5,128.5 536.5,128.5 528.5,128.5C 550.546,90.3862 552.213,51.3862 533.5,11.5 Z"/></g>
<g><path style="opacity:1" fill="#568636" d="M 303.5,14.5 C 301.856,15.3164 300.69,16.6498 300,18.5C 287.643,56.0283 289.81,92.6949 306.5,128.5C 296.5,128.5 286.5,128.5 276.5,128.5C 265.484,99.3423 262.317,69.3423 267,38.5C 267.885,32.2928 269.385,26.2928 271.5,20.5C 282.068,18.1201 292.734,16.1201 303.5,14.5 Z"/></g>
<g><path style="opacity:1" fill="#568636" d="M 558.5,15.5 C 568.704,17.0856 578.704,19.0856 588.5,21.5C 597.835,57.8015 595.835,93.4681 582.5,128.5C 572.5,128.5 562.5,128.5 552.5,128.5C 569.598,91.6484 571.598,53.9817 558.5,15.5 Z"/></g>
<g><path style="opacity:1" fill="#538034" d="M 271.5,20.5 C 269.385,26.2928 267.885,32.2928 267,38.5C 262.317,69.3423 265.484,99.3423 276.5,128.5C 269.167,128.5 261.833,128.5 254.5,128.5C 242.781,94.8474 240.448,60.5141 247.5,25.5C 255.478,23.836 263.478,22.1694 271.5,20.5 Z"/></g>
<g><path style="opacity:1" fill="#538034" d="M 588.5,21.5 C 596.258,22.3184 603.925,23.6517 611.5,25.5C 618.596,60.5164 616.263,94.8497 604.5,128.5C 597.167,128.5 589.833,128.5 582.5,128.5C 595.835,93.4681 597.835,57.8015 588.5,21.5 Z"/></g>
<g><path style="opacity:1" fill="#4e7931" d="M 247.5,25.5 C 240.448,60.5141 242.781,94.8474 254.5,128.5C 243.833,128.5 233.167,128.5 222.5,128.5C 213.372,97.0458 211.038,65.0458 215.5,32.5C 226.074,29.7377 236.741,27.4044 247.5,25.5 Z"/></g>
<g><path style="opacity:1" fill="#4e7931" d="M 611.5,25.5 C 622.118,28.0475 632.785,30.3809 643.5,32.5C 647.989,65.0521 645.655,97.0521 636.5,128.5C 625.833,128.5 615.167,128.5 604.5,128.5C 616.263,94.8497 618.596,60.5164 611.5,25.5 Z"/></g>
<g><path style="opacity:1" fill="#6ba644" d="M 426.5,23.5 C 453.086,25.086 468.086,39.086 471.5,65.5C 468.5,90.5 454.5,104.5 429.5,107.5C 404.5,104.5 390.5,90.5 387.5,65.5C 390.229,41.7764 403.229,27.7764 426.5,23.5 Z"/></g>
<g><path style="opacity:1" fill="#4a722e" d="M 215.5,32.5 C 211.038,65.0458 213.372,97.0458 222.5,128.5C 214.167,128.5 205.833,128.5 197.5,128.5C 189.874,98.9422 187.541,68.9422 190.5,38.5C 198.82,36.3364 207.154,34.3364 215.5,32.5 Z"/></g>
<g><path style="opacity:1" fill="#4a722e" d="M 643.5,32.5 C 651.748,34.7506 660.082,36.7506 668.5,38.5C 671.525,68.9465 669.192,98.9465 661.5,128.5C 653.167,128.5 644.833,128.5 636.5,128.5C 645.655,97.0521 647.989,65.0521 643.5,32.5 Z"/></g>
<g><path style="opacity:1" fill="#466d2c" d="M 190.5,38.5 C 187.541,68.9422 189.874,98.9422 197.5,128.5C 188.833,128.5 180.167,128.5 171.5,128.5C 165.335,101.518 163.002,74.1844 164.5,46.5C 172.886,43.2318 181.553,40.5651 190.5,38.5 Z"/></g>
<g><path style="opacity:1" fill="#466d2c" d="M 668.5,38.5 C 677.085,41.1462 685.752,43.4795 694.5,45.5C 696.064,73.5202 693.731,101.187 687.5,128.5C 678.833,128.5 670.167,128.5 661.5,128.5C 669.192,98.9465 671.525,68.9465 668.5,38.5 Z"/></g>
<g><path style="opacity:1" fill="#426629" d="M 164.5,46.5 C 163.002,74.1844 165.335,101.518 171.5,128.5C 162.5,128.5 153.5,128.5 144.5,128.5C 138.928,103.731 136.928,78.731 138.5,53.5C 146.939,50.3543 155.605,48.021 164.5,46.5 Z"/></g>
<g><path style="opacity:1" fill="#426629" d="M 694.5,45.5 C 703.438,48.3186 712.438,50.9852 721.5,53.5C 722.169,78.8054 719.836,103.805 714.5,128.5C 705.5,128.5 696.5,128.5 687.5,128.5C 693.731,101.187 696.064,73.5202 694.5,45.5 Z"/></g>
<g><path style="opacity:1" fill="#3e5f26" d="M 138.5,53.5 C 136.928,78.731 138.928,103.731 144.5,128.5C 136.167,128.5 127.833,128.5 119.5,128.5C 116.346,108.794 114.346,88.9606 113.5,69C 113.555,66.413 113.889,63.913 114.5,61.5C 122.285,58.2384 130.285,55.5717 138.5,53.5 Z"/></g>
<g><path style="opacity:1" fill="#3d6026" d="M 721.5,53.5 C 729.563,55.9654 737.563,58.6321 745.5,61.5C 745.259,83.9996 743.259,106.333 739.5,128.5C 731.167,128.5 722.833,128.5 714.5,128.5C 719.836,103.805 722.169,78.8054 721.5,53.5 Z"/></g>
<g><path style="opacity:1" fill="#3b5a24" d="M 745.5,61.5 C 755.125,64.262 764.458,67.5953 773.5,71.5C 773.666,77.5092 773.499,83.5092 773,89.5C 770.76,102.423 769.26,115.423 768.5,128.5C 758.833,128.5 749.167,128.5 739.5,128.5C 743.259,106.333 745.259,83.9996 745.5,61.5 Z"/></g>
<g><path style="opacity:1" fill="#3a5a24" d="M 114.5,61.5 C 113.889,63.913 113.555,66.413 113.5,69C 114.346,88.9606 116.346,108.794 119.5,128.5C 110.167,128.5 100.833,128.5 91.5,128.5C 89.1053,109.58 87.772,90.5805 87.5,71.5C 96.1866,67.3815 105.187,64.0482 114.5,61.5 Z"/></g>
<g><path style="opacity:1" fill="#646c1a" d="M 773.5,71.5 C 774.492,71.3284 775.158,71.6618 775.5,72.5C 774.464,91.1004 772.797,109.767 770.5,128.5C 769.833,128.5 769.167,128.5 768.5,128.5C 769.26,115.423 770.76,102.423 773,89.5C 773.499,83.5092 773.666,77.5092 773.5,71.5 Z"/></g>
<g><path style="opacity:1" fill="#d7a200" d="M 75.5,76.5 C 76.7943,78.0478 77.4609,80.0478 77.5,82.5C 78.7136,97.9832 80.7136,113.317 83.5,128.5C 78.1667,128.5 72.8333,128.5 67.5,128.5C 64.1198,112.937 62.7865,97.2701 63.5,81.5C 67.2132,79.315 71.2132,77.6483 75.5,76.5 Z"/></g>
<g><path style="opacity:1" fill="#d6a100" d="M 783.5,75.5 C 787.949,76.8919 792.282,78.5586 796.5,80.5C 796.271,96.6945 794.604,112.695 791.5,128.5C 786.833,128.5 782.167,128.5 777.5,128.5C 780.253,110.82 782.253,93.153 783.5,75.5 Z"/></g>
<g><path style="opacity:1" fill="#c69500" d="M 796.5,80.5 C 799.696,81.9287 802.696,83.5954 805.5,85.5C 804.345,99.8905 802.679,114.224 800.5,128.5C 797.5,128.5 794.5,128.5 791.5,128.5C 794.604,112.695 796.271,96.6945 796.5,80.5 Z"/></g>
<g><path style="opacity:1" fill="#c69500" d="M 63.5,81.5 C 62.7865,97.2701 64.1198,112.937 67.5,128.5C 64.5,128.5 61.5,128.5 58.5,128.5C 56.5363,114.49 54.8697,100.49 53.5,86.5C 56.5154,84.3256 59.8487,82.6589 63.5,81.5 Z"/></g>
<g><path style="opacity:1" fill="#ba8c00" d="M 805.5,85.5 C 808.206,85.6878 810.539,86.6878 812.5,88.5C 811.825,101.903 810.491,115.236 808.5,128.5C 805.833,128.5 803.167,128.5 800.5,128.5C 802.679,114.224 804.345,99.8905 805.5,85.5 Z"/></g>
<g><path style="opacity:1" fill="#ba8c00" d="M 53.5,86.5 C 54.8697,100.49 56.5363,114.49 58.5,128.5C 55.8333,128.5 53.1667,128.5 50.5,128.5C 48.5913,115.563 47.258,102.563 46.5,89.5C 48.7128,88.2271 51.0462,87.2271 53.5,86.5 Z"/></g>
<g><path style="opacity:1" fill="#aa8000" d="M 46.5,89.5 C 47.258,102.563 48.5913,115.563 50.5,128.5C 45.1667,128.5 39.8333,128.5 34.5,128.5C 32.4954,118.486 31.4954,108.486 31.5,98.5C 36.2156,95.1373 41.2156,92.1373 46.5,89.5 Z"/></g>
<g><path style="opacity:1" fill="#a77d00" d="M 812.5,88.5 C 818.192,91.0089 823.526,94.0089 828.5,97.5C 827.572,107.927 826.238,118.26 824.5,128.5C 819.167,128.5 813.833,128.5 808.5,128.5C 810.491,115.236 811.825,101.903 812.5,88.5 Z"/></g>
<g><path style="opacity:1" fill="#717317" d="M 85.5,72.5 C 85.7411,89.2356 86.7411,105.902 88.5,122.5C 86.8031,120.695 85.9698,118.361 86,115.5C 84.7016,101.524 83.8683,87.5243 83.5,73.5C 83.8417,72.6618 84.5084,72.3284 85.5,72.5 Z"/></g>
<g><path style="opacity:1" fill="#55651d" d="M 87.5,71.5 C 87.772,90.5805 89.1053,109.58 91.5,128.5C 90.5,128.5 89.5,128.5 88.5,128.5C 88.5,126.5 88.5,124.5 88.5,122.5C 86.7411,105.902 85.7411,89.2356 85.5,72.5C 85.8417,71.6618 86.5084,71.3284 87.5,71.5 Z"/></g>
<g><path style="opacity:1" fill="#9d880e" d="M 776.5,72.5 C 778.153,72.6596 779.486,73.3263 780.5,74.5C 778.726,92.3484 777.059,110.348 775.5,128.5C 774.5,128.5 773.5,128.5 772.5,128.5C 775.349,109.993 776.682,91.326 776.5,72.5 Z"/></g>
<g><path style="opacity:1" fill="#ae910a" d="M 80.5,74.5 C 81.604,92.6569 83.604,110.657 86.5,128.5C 85.5,128.5 84.5,128.5 83.5,128.5C 80.7136,113.317 78.7136,97.9832 77.5,82.5C 77.4609,80.0478 76.7943,78.0478 75.5,76.5C 76.7804,75.0687 78.4471,74.4021 80.5,74.5 Z"/></g>
<g><path style="opacity:1" fill="#916d00" d="M 828.5,97.5 C 832.754,99.7485 836.754,102.415 840.5,105.5C 839.256,113.12 838.256,120.787 837.5,128.5C 833.167,128.5 828.833,128.5 824.5,128.5C 826.238,118.26 827.572,107.927 828.5,97.5 Z"/></g>
<g><path style="opacity:1" fill="#916d00" d="M 31.5,98.5 C 31.4954,108.486 32.4954,118.486 34.5,128.5C 30.1667,128.5 25.8333,128.5 21.5,128.5C 20.5041,121.199 19.8375,113.866 19.5,106.5C 23.2458,103.415 27.2458,100.749 31.5,98.5 Z"/></g>
<g><path style="opacity:1" fill="#816100" d="M 840.5,105.5 C 845.875,109.708 850.375,114.708 854,120.5C 854.822,123.117 855.322,125.784 855.5,128.5C 849.5,128.5 843.5,128.5 837.5,128.5C 838.256,120.787 839.256,113.12 840.5,105.5 Z"/></g>
<g><path style="opacity:1" fill="#806100" d="M 19.5,106.5 C 19.8375,113.866 20.5041,121.199 21.5,128.5C 15.5,128.5 9.5,128.5 3.5,128.5C 6.09256,119.231 11.4259,111.898 19.5,106.5 Z"/></g>
<g><path style="opacity:1" fill="#897e12" d="M 83.5,73.5 C 83.8683,87.5243 84.7016,101.524 86,115.5C 85.9698,118.361 86.8031,120.695 88.5,122.5C 88.5,124.5 88.5,126.5 88.5,128.5C 87.8333,128.5 87.1667,128.5 86.5,128.5C 83.604,110.657 81.604,92.6569 80.5,74.5C 81.209,73.596 82.209,73.2627 83.5,73.5 Z"/></g>
<g><path style="opacity:1" fill="#847c13" d="M 775.5,72.5 C 775.833,72.5 776.167,72.5 776.5,72.5C 776.682,91.326 775.349,109.993 772.5,128.5C 771.833,128.5 771.167,128.5 770.5,128.5C 772.797,109.767 774.464,91.1004 775.5,72.5 Z"/></g>
<g><path style="opacity:1" fill="#c49b06" d="M 780.5,74.5 C 781.791,74.2627 782.791,74.596 783.5,75.5C 782.253,93.153 780.253,110.82 777.5,128.5C 776.833,128.5 776.167,128.5 775.5,128.5C 777.059,110.348 778.726,92.3484 780.5,74.5 Z"/></g>
</svg>
